<svg id="Capa_1" enable-background="new 0 0 512 512" height="512" viewBox="0 0 512 512" width="512" xmlns="http://www.w3.org/2000/svg"><g><circle cx="130" cy="316" r="10"/><circle cx="90" cy="316" r="10"/><circle cx="50" cy="316" r="10"/><path d="m150.936 129.653c-3.127 1.833-4.905 5.149-4.93 8.533 0 .028-.006.056-.006.084v47.73h-46v-61.72c11.639-4.128 20-15.243 20-28.28 0-16.542-13.458-30-30-30s-30 13.458-30 30c0 13.036 8.361 24.152 20 28.28v71.72c0 5.523 4.478 10 10 10h56v47.74c0 .029.005.057.006.085.028 3.66 2.093 6.899 4.994 8.575l100 57.73c.027.015.055.025.082.04 3.11 1.762 6.877 1.676 9.836 0 .027-.015.055-.025.082-.04 0 0 99.931-57.69 99.938-57.694 3.176-2.023 5.026-4.747 5.056-8.611 0-.029.006-.057.006-.085v-47.74h40v30c0 5.523 4.478 10 10 10s10-4.477 10-10v-40c0-5.523-4.478-10-10-10h-50v-47.73c0-.028-.005-.056-.006-.084-.027-3.439-1.851-6.726-4.927-8.531-.023-.014-.044-.032-.068-.045l-99.999-57.74c-.025-.015-.052-.024-.078-.038-3.051-1.73-6.805-1.724-9.845 0-.025.014-.052.024-.078.038l-100 57.74c-.022.013-.041.03-.063.043zm-60.936-23.653c-5.514 0-10-4.486-10-10s4.486-10 10-10 10 4.486 10 10-4.486 10-10 10zm156 188.15-69.999-40.411 40-23.093 30 17.317v46.187zm20 0v-46.187l30-17.317 40 23.093zm80-108.15h-10c-5.522 0-10 4.477-10 10s4.478 10 10 10h10v30.42l-40-23.093v-34.652l40-23.087zm-80-88.149 69.998 40.417-39.998 23.086-30-17.317zm-10 63.505 30 17.317v34.652l-30 17.317-30-17.317v-34.652zm-10-63.505v46.185l-30 17.317-39.998-23.085zm-80 108.149h10c5.522 0 10-4.477 10-10s-4.478-10-10-10h-10v-30.412l40 23.087v34.652l-40 23.093z"/><path d="m442 266h-46c-5.522 0-10 4.477-10 10s4.478 10 10 10h46c5.522 0 10-4.477 10-10s-4.478-10-10-10z"/><path d="m366 316c0 5.523 4.478 10 10 10h86c5.522 0 10-4.477 10-10s-4.478-10-10-10h-86c-5.522 0-10 4.477-10 10z"/><circle cx="256" cy="36" r="10"/><path d="m502 26h-201c-5.522 0-10 4.477-10 10s4.478 10 10 10h191v300h-472v-300h191c5.522 0 10-4.477 10-10s-4.478-10-10-10h-201c-5.522 0-10 4.477-10 10v360c0 5.523 4.478 10 10 10h196v60h-30c-5.522 0-10 4.477-10 10s4.478 10 10 10h160c5.522 0 10-4.477 10-10s-4.478-10-10-10h-30v-60h196c5.522 0 10-4.477 10-10v-360c0-5.523-4.478-10-10-10zm-216 440h-60v-60h60zm206-80h-472v-20h472z"/></g></svg>